<svg xmlns="http://www.w3.org/2000/svg" width="1200" height="820" viewBox="0 0 1200 820">
  <rect width="1200" height="820" fill="#ffffff"/>
  <g fill="#000000" font-family="Arial, Helvetica, sans-serif">
    <text x="24" y="52" font-size="26" font-weight="700">Cigna Healthcare</text>
    <text x="24" y="84" font-size="18">202 North End Street,</text>
    <text x="24" y="118" font-size="18">Nashville, TN 37235</text>

    <text x="24" y="186" font-size="18">615-450-5591</text>
    <text x="24" y="220" font-size="18">Cigna@gmail.com</text>

    <text x="1080" y="54" text-anchor="end" font-size="34" font-weight="700">Invoice</text>

    <line x1="24" y1="274" x2="1152" y2="274" stroke="#000000" stroke-width="2"/>

    <text x="24" y="342" font-size="18" font-weight="700">Bill To</text>
    <text x="126" y="342" font-size="18">Rhonda Wesley Taylor</text>
    <text x="126" y="378" font-size="18">628 Providence Lane</text>
    <text x="126" y="414" font-size="18">Hartsville, TN 37074</text>

    <text x="876" y="342" font-size="18" font-weight="700">Invoice Number</text>
    <text x="1126" y="342" font-size="18" text-anchor="end">2001321</text>
    <text x="988" y="378" font-size="18" font-weight="700">Date</text>
    <text x="1126" y="378" font-size="18" text-anchor="end">9/27/2023</text>
    <text x="930" y="414" font-size="18" font-weight="700">Physician name</text>

    <rect x="24" y="468" width="1128" height="56" fill="#efefef" stroke="#000000" stroke-width="1"/>
    <text x="36" y="504" font-size="18" font-weight="700">Description</text>
    <text x="760" y="504" font-size="18" font-weight="700">Quantity</text>
    <text x="860" y="504" font-size="18" font-weight="700">Unit price</text>
    <text x="1000" y="504" font-size="18" font-weight="700">Amount</text>

    <g stroke="#000000" stroke-width="1" fill="none">
      <rect x="24" y="524" width="1128" height="238"/>
      <line x1="744" y1="468" x2="744" y2="762"/>
      <line x1="842" y1="468" x2="842" y2="762"/>
      <line x1="964" y1="468" x2="964" y2="762"/>
      <line x1="24" y1="580" x2="1152" y2="580"/>
      <line x1="24" y1="636" x2="1152" y2="636"/>
      <line x1="24" y1="692" x2="1152" y2="692"/>
      <line x1="24" y1="748" x2="1152" y2="748"/>
    </g>

    <text x="36" y="554" font-size="17">Homovanillic acid (organic acid) level (83150)</text>
    <text x="756" y="554" font-size="17">1</text>
    <text x="854" y="554" font-size="17">$67.00</text>
    <text x="976" y="554" font-size="17">$67.00</text>

    <text x="36" y="610" font-size="17">Surgical pathology consultation and report on referred slides prepared elsewhere (88321)</text>
    <text x="756" y="610" font-size="17">1</text>
    <text x="854" y="610" font-size="17">$545.00</text>
    <text x="976" y="610" font-size="17">$545.00</text>

    <text x="36" y="666" font-size="17">Semen evaluation volume, sperm count, motility and analysis (89320)</text>
    <text x="756" y="666" font-size="17">1</text>
    <text x="854" y="666" font-size="17">$175.00</text>
    <text x="976" y="666" font-size="17">$175.00</text>

    <text x="36" y="722" font-size="17">Blood test, lipids (cholesterol and triglycerides) (80061)</text>
    <text x="756" y="722" font-size="17">1</text>
    <text x="854" y="722" font-size="17">$75.00</text>
    <text x="976" y="722" font-size="17">$75.00</text>

    <text x="850" y="794" font-size="18" font-weight="700">Total</text>
    <text x="1010" y="794" font-size="18" font-weight="700">$862.00</text>
    <line x1="836" y1="808" x2="1120" y2="808" stroke="#000000" stroke-width="1"/>
  </g>
</svg>
